<svg width="48" height="27" viewBox="0 0 48 27" fill="none" xmlns="http://www.w3.org/2000/svg">
<path d="M24.9721 18.7221C24.5425 18.6889 24.1109 18.6897 23.6815 18.7245L24.2395 23.9499H24.465L24.9721 18.7221ZM25.013 18.2878C24.5544 18.2517 24.0937 18.2527 23.6353 18.2907L21.8232 1.36719L26.5949 2.00554L25.013 18.2878ZM26.6951 19.0389C26.2818 18.9167 25.8597 18.8268 25.4325 18.7701L24.8916 23.9974L25.1118 24.0448L26.6951 19.0389ZM26.8252 18.623C26.3845 18.4909 25.9338 18.395 25.4776 18.3363L27.2263 1.4062L31.7598 3.03318L26.8252 18.623ZM23.2215 18.7741C22.7946 18.8323 22.3729 18.9237 21.96 19.0476L23.5931 24.0398L23.8131 23.9926L23.2215 18.7741ZM23.1712 18.3408C22.7151 18.4014 22.2647 18.4992 21.8245 18.6333L16.5314 2.46493L21.331 2.08593L23.1712 18.3408ZM21.5206 19.1931C21.3227 19.2647 21.1277 19.3438 20.9358 19.4303C20.7329 19.5215 20.5354 19.6204 20.3437 19.7258L22.9793 24.2649L23.1848 24.1721L21.5206 19.1931ZM21.3808 18.7801C20.9476 18.9354 20.5276 19.1256 20.1248 19.3489L11.5855 4.65068L16.2 3.27144L21.3808 18.7801ZM19.9441 19.9601C19.7669 20.0708 19.5928 20.1889 19.4215 20.3151C19.2437 20.4459 19.0711 20.5837 18.9042 20.7284L22.4255 24.6131L22.6072 24.4792L19.9441 19.9601ZM19.7218 19.5858C19.5327 19.7031 19.3471 19.8288 19.1651 19.963C18.9746 20.103 18.79 20.251 18.6118 20.4066L7.20342 7.82742L11.4287 5.50884L19.7218 19.5858ZM18.5623 21.042C18.252 21.3425 17.9655 21.6667 17.7051 22.0117L21.9569 25.0701L22.1069 24.9009L18.5623 21.042ZM18.2667 20.7223C17.9348 21.0424 17.629 21.3887 17.3521 21.7579L3.57909 11.855L7.22859 8.69956L18.2667 20.7223ZM17.4361 22.3899C17.1951 22.7489 16.9823 23.1263 16.7997 23.5185L21.5937 25.6159L21.7052 25.419L17.4361 22.3899ZM17.0808 22.1395C16.8227 22.5223 16.5956 22.9253 16.4016 23.3445L0.873047 16.5554L3.78546 12.7028L17.0808 22.1395ZM28.3137 19.711C27.9348 19.5047 27.5407 19.328 27.1348 19.1826L25.5183 24.1806L25.7239 24.2731L28.3137 19.711ZM28.5277 19.3315C28.1239 19.1101 27.7031 18.9217 27.2693 18.768L32.501 2.57959L36.596 5.12351L28.5277 19.3315ZM29.7567 20.7084C29.597 20.571 29.4322 20.4399 29.2624 20.3154C29.0847 20.1842 28.9017 20.0604 28.7139 19.9443L26.0933 24.4916L26.2748 24.6255L29.7567 20.7084ZM30.0449 20.3823C29.8753 20.2355 29.6999 20.0955 29.5191 19.9627C29.3289 19.8224 29.1329 19.6902 28.9315 19.5666L37.4157 4.83596L40.8908 8.18429L30.0449 20.3823ZM30.9605 21.9874C30.699 21.6432 30.4111 21.32 30.0997 21.0207L26.591 24.9167L26.741 25.0859L30.9605 21.9874ZM31.3101 21.7286C31.0319 21.3604 30.7246 21.0154 30.391 20.697L41.7522 8.07491L44.4538 12.0795L31.3101 21.7286ZM31.8715 23.4908C31.7823 23.301 31.6855 23.1134 31.5809 22.9284C31.4716 22.7359 31.355 22.5477 31.2311 22.3643L26.9896 25.4372L27.1007 25.6339L31.8715 23.4908ZM32.2674 23.3113C32.0717 22.8929 31.8428 22.491 31.583 22.1095L45.3188 12.1546L47.1276 16.6387L32.2674 23.3113Z" fill="white"/>
</svg>
